<?xml version="1.0" encoding="UTF-8"?>
<svg width="2129px" height="257px" viewBox="0 0 2129 257" version="1.1" xmlns="http://www.w3.org/2000/svg" xmlns:xlink="http://www.w3.org/1999/xlink">
    <title>small_d4</title>
    <g class="Bannerbear" stroke="none" stroke-width="1" fill="none" fill-rule="evenodd">
        <g class="Artboard" transform="translate(-1093.000000, -973.000000)">
            <g class="small_d4" transform="translate(1093.000000, 973.000000)">
                <rect class="Rectangle" fill-opacity="0" fill="#FFFFFF" x="0" y="0" width="2129" height="257"></rect>
                <path d="M2009.25,0 L2009.25,10.91 L1938,10.91 C1875.56,10.91 1664,104.08 1477.77,86.91 C1409.54,80.67 1239.73,48.08 1168,48.08 C1095.2,48.08 951.6,87.53 882,108.89 C749.1,149.7 606,147.94 469.05,124.25 C332.1,100.56 198.67,10.91 120.33,10.91 L74,10.91 L74,0 L2009.25,0 Z" class="filling" fill="#F3C832" fill-rule="nonzero"></path>
                <path d="M2016.33,10.91 L1944,10.91 C1881.56,10.91 1670,104.08 1483.77,86.91 C1415.54,80.67 1245.73,48.08 1174,48.08 C1101.2,48.08 957.6,87.53 888,108.89 C755.1,149.7 612,147.94 475.05,124.25 C338.1,100.56 204.67,10.91 126.33,10.91 L74,10.91" class="border" stroke="#000000" stroke-width="9" stroke-linecap="round"></path>
            </g>
        </g>
    </g>
</svg>